<svg width="178" height="32" viewBox="0 0 178 32" fill="none" xmlns="http://www.w3.org/2000/svg">
<path d="M51.242 12.4297C48.5666 11.6196 48.1484 11.0795 48.1484 10.2943C48.1484 9.60194 48.7632 8.99401 49.9902 8.99401C51.375 8.99401 52.1712 9.58809 52.7445 10.5755C52.7746 10.6276 52.8147 10.6732 52.8625 10.7098C52.9103 10.7463 52.9648 10.7731 53.023 10.7886C53.0811 10.804 53.1418 10.8078 53.2014 10.7998C53.261 10.7917 53.3185 10.7719 53.3705 10.7416L55.8908 9.26682C55.9941 9.20749 56.0702 9.11015 56.1028 8.99556C56.1354 8.88097 56.1219 8.75818 56.0653 8.65335C54.7843 6.3712 52.667 5.16504 49.9902 5.16504C47.0198 5.16504 44.2197 7.08022 44.2197 10.3871C44.2197 13.676 46.7234 14.903 49.2756 15.6147C51.8527 16.3265 52.8345 16.7434 52.8345 17.8C52.8345 18.4619 52.3679 19.1986 50.5025 19.1986C48.7646 19.1986 47.7329 18.4287 47.1015 17.246C47.0729 17.1916 47.0335 17.1435 46.9857 17.1047C46.938 17.0659 46.8828 17.0372 46.8236 17.0204C46.7644 17.0035 46.7025 16.9989 46.6414 17.0068C46.5804 17.0146 46.5216 17.0348 46.4686 17.066L43.8596 18.5851C43.7622 18.6402 43.6885 18.7293 43.6527 18.8354C43.617 18.9415 43.6216 19.057 43.6658 19.1598C44.7016 21.4835 46.9574 23.0373 50.3821 23.0373C54.1127 23.0373 56.7632 21.075 56.7632 17.7612C56.7632 14.1261 53.8427 13.2149 51.242 12.4297Z" fill="#282021"/>
<path d="M75.4659 4.52713C75.0006 4.36589 74.4943 4.36731 74.0299 4.53114C73.5655 4.69498 73.1704 5.01154 72.9092 5.42906C72.6481 5.84658 72.5363 6.34036 72.5922 6.82965C72.6481 7.31894 72.8683 7.77479 73.2169 8.12266C73.5655 8.47054 74.0218 8.68984 74.5112 8.74472C75.0006 8.7996 75.4942 8.68681 75.9112 8.42479C76.3281 8.16276 76.6439 7.76702 76.8068 7.30226C76.9696 6.8375 76.97 6.33123 76.8078 5.86623C76.6991 5.55654 76.5221 5.27532 76.2897 5.04348C76.0574 4.81165 75.7758 4.63516 75.4659 4.52713Z" fill="#282021"/>
<path d="M76.1323 10.417H73.3627C73.3024 10.4168 73.2427 10.4285 73.187 10.4515C73.1313 10.4745 73.0807 10.5082 73.0381 10.5508C72.9955 10.5934 72.9618 10.644 72.9388 10.6997C72.9158 10.7554 72.9041 10.8151 72.9043 10.8754V22.2307C72.9041 22.2909 72.9159 22.3505 72.9388 22.4062C72.9618 22.4618 72.9956 22.5123 73.0382 22.5548C73.0808 22.5973 73.1315 22.6309 73.1871 22.6537C73.2428 22.6765 73.3025 22.6881 73.3627 22.6877H76.1323C76.1925 22.6881 76.2521 22.6765 76.3078 22.6537C76.3635 22.6309 76.4141 22.5973 76.4567 22.5548C76.4993 22.5123 76.5331 22.4618 76.5561 22.4062C76.5791 22.3505 76.5908 22.2909 76.5906 22.2307V10.8754C76.5908 10.8151 76.5791 10.7554 76.5561 10.6997C76.5332 10.644 76.4994 10.5934 76.4568 10.5508C76.4142 10.5082 76.3636 10.4745 76.3079 10.4515C76.2522 10.4285 76.1925 10.4168 76.1323 10.417Z" fill="#282021"/>
<path d="M86.6268 10.0732C85.3611 10.0732 83.8572 10.4568 83.0263 11.5051C82.8405 11.8578 82.6925 12.2292 82.5846 12.613C82.4752 13.0963 82.0722 13.0146 81.9933 12.8899C81.6637 12.3665 82.6012 11.8943 82.9696 11.3029V10.875C82.9696 10.7535 82.9213 10.6369 82.8353 10.5509C82.7493 10.465 82.6328 10.4167 82.5112 10.4167H79.7416C79.6813 10.4165 79.6216 10.4282 79.566 10.4512C79.5103 10.4742 79.4597 10.5079 79.4171 10.5505C79.3745 10.5931 79.3407 10.6437 79.3177 10.6994C79.2948 10.7551 79.283 10.8148 79.2832 10.875V27.1423C79.283 27.2026 79.2948 27.2622 79.3177 27.3179C79.3407 27.3736 79.3745 27.4242 79.4171 27.4668C79.4597 27.5094 79.5103 27.5432 79.566 27.5662C79.6216 27.5891 79.6813 27.6009 79.7416 27.6007H82.5112C82.6328 27.6007 82.7493 27.5524 82.8353 27.4664C82.9213 27.3805 82.9696 27.2639 82.9696 27.1423V21.7194C82.8311 21.4425 82.4959 21.2181 82.3312 20.9896C82.032 20.6919 81.8022 20.408 81.9933 20.1047C82.0694 19.9829 82.4752 19.9012 82.5846 20.3817C82.6947 20.773 82.8456 21.1518 83.0346 21.5117V21.6031C83.0415 21.6103 83.0475 21.6182 83.0526 21.6266C83.3039 21.9005 83.5919 22.1381 83.9084 22.3329C84.4894 22.6826 85.1388 22.9032 85.8125 22.9796C86.083 23.0142 86.3555 23.0309 86.6282 23.0294C89.8437 23.0294 92.4942 20.2058 92.4942 16.55C92.4942 12.8941 89.8396 10.0732 86.6268 10.0732ZM85.8901 19.5467C84.1965 19.5467 82.9696 18.3931 82.9696 16.5527C82.9696 14.7123 84.1965 13.5574 85.8901 13.5574C87.5837 13.5574 88.8079 14.7109 88.8079 16.5527C88.8079 18.3945 87.5837 19.5467 85.8901 19.5467Z" fill="#282021"/>
<path d="M65.7962 10.0737C64.8144 10.0737 63.7979 10.2911 62.9906 10.8755C62.7523 11.0331 62.5409 11.2281 62.3646 11.4529C62.1894 11.7948 62.0501 12.154 61.9492 12.5248C61.8398 13.0081 61.4368 12.9264 61.3565 12.8017C61.038 12.2977 61.8966 11.8421 62.2899 11.2784V5.96911C62.2899 5.84754 62.2416 5.73096 62.1556 5.645C62.0696 5.55903 61.9531 5.51074 61.8315 5.51074H59.0619C58.9403 5.51074 58.8237 5.55903 58.7378 5.645C58.6518 5.73096 58.6035 5.84754 58.6035 5.96911V22.2308C58.6035 22.291 58.6154 22.3505 58.6384 22.406C58.6615 22.4616 58.6953 22.512 58.7379 22.5545C58.7804 22.5969 58.831 22.6305 58.8866 22.6534C58.9422 22.6763 59.0018 22.688 59.0619 22.6878H61.8315C61.8916 22.688 61.9512 22.6763 62.0068 22.6534C62.0624 22.6305 62.1129 22.5969 62.1555 22.5545C62.1981 22.512 62.2319 22.4616 62.2549 22.406C62.278 22.3505 62.2899 22.291 62.2899 22.2308V15.9882C62.2899 14.2461 63.2218 13.4609 64.572 13.4609C65.7505 13.4609 66.7074 14.1727 66.7074 15.6932V22.2308C66.7074 22.291 66.7192 22.3505 66.7423 22.406C66.7653 22.4616 66.7991 22.512 66.8417 22.5545C66.8843 22.5969 66.9348 22.6305 66.9904 22.6534C67.046 22.6763 67.1056 22.688 67.1657 22.6878H69.9353C69.9954 22.688 70.0549 22.6763 70.1104 22.6534C70.166 22.6305 70.2164 22.5969 70.2589 22.5544C70.3014 22.5119 70.335 22.4615 70.3579 22.4059C70.3808 22.3504 70.3925 22.2909 70.3923 22.2308V15.1531C70.3854 11.8407 68.275 10.0737 65.7962 10.0737Z" fill="#282021"/>
<path d="M157.974 4.77246H155.204C155.144 4.77228 155.085 4.78401 155.029 4.80698C154.973 4.82995 154.923 4.86371 154.88 4.90631C154.837 4.94891 154.804 4.99951 154.781 5.05521C154.758 5.1109 154.746 5.17059 154.746 5.23083V22.2279C154.746 22.288 154.758 22.3476 154.781 22.4031C154.804 22.4586 154.838 22.5091 154.88 22.5515C154.923 22.594 154.974 22.6276 155.029 22.6505C155.085 22.6734 155.144 22.6851 155.204 22.6849H157.974C158.034 22.6851 158.094 22.6734 158.149 22.6505C158.205 22.6276 158.256 22.594 158.298 22.5515C158.341 22.5091 158.374 22.4586 158.398 22.4031C158.421 22.3476 158.432 22.288 158.432 22.2279V5.23083C158.433 5.17059 158.421 5.1109 158.398 5.05521C158.375 4.99951 158.341 4.94891 158.299 4.90631C158.256 4.86371 158.205 4.82995 158.15 4.80698C158.094 4.78401 158.034 4.77228 157.974 4.77246Z" fill="#D93855"/>
<path d="M167.049 10.0732C163.171 10.0732 160.52 12.8955 160.52 16.5527C160.52 20.21 163.122 23.0308 167.319 23.0308C169.438 23.0308 171.127 22.3218 172.322 20.9425C172.367 20.8913 172.4 20.8307 172.419 20.7652C172.437 20.6998 172.441 20.631 172.43 20.5638C172.419 20.4966 172.394 20.4326 172.355 20.3765C172.317 20.3204 172.266 20.2734 172.207 20.2391L170.018 18.9817C169.938 18.9348 169.845 18.9139 169.752 18.9218C169.659 18.9297 169.571 18.9661 169.5 19.026C168.894 19.5051 168.14 19.7596 167.367 19.7461C166.017 19.7461 164.889 19.3043 164.422 18.0275H172.75C172.862 18.0271 172.97 17.9862 173.053 17.9123C173.137 17.8385 173.191 17.7367 173.206 17.6259C173.257 17.2715 173.283 16.9137 173.282 16.5555C173.28 12.8456 170.624 10.0732 167.049 10.0732ZM164.349 15.2759C164.692 14.0296 165.625 13.3372 167.024 13.3372C168.132 13.3372 169.24 13.8524 169.626 15.2759H164.349Z" fill="#D93855"/>
<path d="M121.018 10.417H118.248C118.127 10.417 118.01 10.4653 117.924 10.5512C117.838 10.6372 117.79 10.7538 117.79 10.8754V17.1167C117.79 18.8601 116.858 19.6453 115.508 19.6453C114.329 19.6453 113.372 18.9335 113.372 17.4116V10.8754C113.372 10.7538 113.324 10.6372 113.238 10.5512C113.152 10.4653 113.036 10.417 112.914 10.417H110.144C110.084 10.417 110.025 10.4289 109.969 10.4519C109.914 10.475 109.863 10.5087 109.821 10.5513C109.778 10.5939 109.745 10.6445 109.722 10.7001C109.699 10.7557 109.687 10.8152 109.688 10.8754V17.9517C109.688 21.2641 111.798 23.0325 114.277 23.0325C115.523 23.0325 116.9 22.6614 117.701 21.6477C117.718 21.6256 117.73 21.602 117.747 21.5799C117.865 21.3444 117.969 21.1021 118.059 20.8542C118.059 20.8432 118.067 20.8293 118.067 20.8196C118.073 20.7856 118.084 20.7525 118.099 20.7213C118.115 20.6631 118.132 20.6091 118.143 20.5551C118.252 20.0718 118.655 20.1535 118.734 20.2782C119.058 20.7905 118.168 21.2475 117.783 21.8236V22.239C117.783 22.2992 117.795 22.3587 117.818 22.4142C117.841 22.4698 117.875 22.5202 117.917 22.5627C117.96 22.6051 118.011 22.6388 118.066 22.6616C118.122 22.6845 118.181 22.6962 118.241 22.696H121.011C121.071 22.6962 121.131 22.6845 121.186 22.6616C121.242 22.6387 121.292 22.6051 121.335 22.5626C121.377 22.5201 121.411 22.4697 121.434 22.4141C121.456 22.3586 121.468 22.2991 121.468 22.239V10.8837C121.47 10.8233 121.46 10.7631 121.438 10.7068C121.416 10.6504 121.383 10.599 121.341 10.5555C121.299 10.512 121.249 10.4773 121.194 10.4535C121.138 10.4298 121.078 10.4173 121.018 10.417Z" fill="#D93855"/>
<path d="M131.508 10.0733C130.759 10.0605 130.015 10.2019 129.322 10.4888C128.735 10.745 128.189 11.0967 127.851 11.6105C127.744 11.8248 127.65 12.0448 127.567 12.2696C127.567 12.2779 127.567 12.2863 127.567 12.2946C127.56 12.3317 127.548 12.3677 127.53 12.4012C127.505 12.4746 127.487 12.5397 127.47 12.6131C127.361 13.0964 126.957 13.0147 126.878 12.89C126.548 12.3666 127.487 11.8944 127.847 11.303V5.96325C127.847 5.84169 127.799 5.7251 127.713 5.63914C127.627 5.55317 127.51 5.50488 127.389 5.50488H124.619C124.559 5.50488 124.499 5.51675 124.444 5.5398C124.388 5.56285 124.338 5.59664 124.295 5.63922C124.253 5.6818 124.219 5.73234 124.197 5.78795C124.174 5.84355 124.162 5.90312 124.162 5.96325V22.225C124.162 22.285 124.174 22.3445 124.197 22.4001C124.219 22.4556 124.253 22.506 124.296 22.5485C124.338 22.591 124.388 22.6246 124.444 22.6475C124.5 22.6704 124.559 22.6821 124.619 22.682H127.389C127.449 22.6821 127.508 22.6705 127.564 22.6476C127.62 22.6247 127.67 22.5911 127.713 22.5486C127.755 22.5061 127.789 22.4557 127.812 22.4002C127.835 22.3446 127.847 22.2851 127.847 22.225V21.75C127.48 21.1614 126.538 20.6892 126.878 20.163C126.954 20.0398 127.361 19.9581 127.47 20.44C127.575 20.8197 127.72 21.187 127.904 21.5353C128.607 22.5615 130.12 22.9838 131.295 23.0226C131.37 23.0226 131.441 23.0226 131.514 23.0226C134.73 23.0226 137.38 20.199 137.38 16.5431C137.38 12.8873 134.724 10.0733 131.508 10.0733ZM130.766 19.5468C129.073 19.5468 127.846 18.3932 127.846 16.5528C127.846 14.7124 129.078 13.5589 130.766 13.5589C132.454 13.5589 133.687 14.711 133.687 16.5528C133.687 18.3946 132.465 19.5468 130.766 19.5468Z" fill="#D93855"/>
<path d="M146.795 10.0733C146.045 10.0605 145.301 10.2019 144.608 10.4888C144.021 10.745 143.476 11.0967 143.138 11.6105C143.033 11.8249 142.941 12.045 142.861 12.2696C142.86 12.2779 142.86 12.2863 142.861 12.2946C142.854 12.3319 142.842 12.3679 142.823 12.4012C142.8 12.4746 142.781 12.5397 142.764 12.6131C142.655 13.0964 142.25 13.0147 142.173 12.89C141.842 12.3666 142.781 11.8944 143.142 11.303V5.96325C143.142 5.90312 143.13 5.84355 143.108 5.78795C143.085 5.73234 143.051 5.6818 143.009 5.63922C142.966 5.59664 142.916 5.56285 142.86 5.5398C142.805 5.51675 142.745 5.50488 142.685 5.50488H139.915C139.794 5.50488 139.677 5.55317 139.591 5.63914C139.505 5.7251 139.457 5.84169 139.457 5.96325V22.225C139.457 22.2851 139.469 22.3446 139.492 22.4002C139.515 22.4557 139.549 22.5061 139.591 22.5486C139.634 22.5911 139.684 22.6247 139.74 22.6476C139.796 22.6705 139.855 22.6821 139.915 22.682H142.685C142.745 22.6821 142.805 22.6704 142.86 22.6475C142.916 22.6246 142.966 22.591 143.009 22.5485C143.051 22.506 143.085 22.4556 143.108 22.4001C143.13 22.3445 143.142 22.285 143.142 22.225V21.75C142.775 21.1614 141.833 20.6892 142.173 20.163C142.249 20.0398 142.655 19.9581 142.764 20.44C142.869 20.8195 143.014 21.1868 143.197 21.5353C143.901 22.5615 145.413 22.9838 146.59 23.0226C146.664 23.0226 146.729 23.0226 146.808 23.0226C150.023 23.0226 152.674 20.199 152.674 16.5431C152.674 12.8873 150.015 10.0733 146.795 10.0733ZM146.06 19.5468C144.366 19.5468 143.138 18.3932 143.138 16.5528C143.138 14.7124 144.366 13.5589 146.06 13.5589C147.753 13.5589 148.979 14.711 148.979 16.5528C148.979 18.3946 147.752 19.5468 146.06 19.5468Z" fill="#D93855"/>
<path d="M101.915 10.0733C101.166 10.0605 100.421 10.2019 99.7287 10.4888C99.1415 10.745 98.5959 11.0967 98.258 11.6105C98.1537 11.8249 98.0612 12.045 97.9811 12.2696C97.9775 12.2775 97.9752 12.2859 97.9742 12.2946C97.9676 12.3319 97.955 12.3679 97.9368 12.4012C97.9132 12.4746 97.8938 12.5397 97.8772 12.6131C97.7678 13.0964 97.3635 13.0147 97.2859 12.89C96.9549 12.3666 97.8938 11.8944 98.2553 11.303V5.96325C98.2555 5.90312 98.2438 5.84355 98.2209 5.78795C98.198 5.73234 98.1644 5.6818 98.1219 5.63922C98.0795 5.59664 98.029 5.56285 97.9735 5.5398C97.918 5.51675 97.8584 5.50488 97.7983 5.50488H95.0287C94.9071 5.50488 94.7905 5.55317 94.7046 5.63914C94.6186 5.7251 94.5703 5.84169 94.5703 5.96325V22.225C94.5703 22.2851 94.5822 22.3446 94.6052 22.4002C94.6283 22.4557 94.6621 22.5061 94.7047 22.5486C94.7472 22.5911 94.7978 22.6247 94.8534 22.6476C94.909 22.6705 94.9686 22.6821 95.0287 22.682H97.7983C97.8583 22.6821 97.9179 22.6704 97.9734 22.6475C98.0289 22.6246 98.0794 22.591 98.1218 22.5485C98.1643 22.506 98.198 22.4556 98.2209 22.4001C98.2438 22.3445 98.2555 22.285 98.2553 22.225V21.75C97.8883 21.1614 96.9466 20.6892 97.2859 20.163C97.3621 20.0398 97.7678 19.9581 97.8772 20.44C97.9821 20.8195 98.1274 21.1868 98.3107 21.5353C99.0141 22.5615 100.526 22.9838 101.703 23.0226C101.777 23.0226 101.842 23.0226 101.921 23.0226C105.136 23.0226 107.787 20.199 107.787 16.5431C107.787 12.8873 105.131 10.0733 101.915 10.0733ZM101.18 19.5468C99.4864 19.5468 98.258 18.3932 98.258 16.5528C98.258 14.7124 99.4864 13.5589 101.18 13.5589C102.874 13.5589 104.099 14.711 104.099 16.5528C104.099 18.3946 102.872 19.5468 101.18 19.5468Z" fill="#D93855"/>
<path d="M11.5755 22.9311C16.5742 22.9311 21.5737 22.9311 26.5739 22.9311C27.2797 22.9418 27.9673 22.7068 28.519 22.2664C29.4916 21.491 29.9236 20.4808 29.6611 19.2556C29.4797 18.414 29.0562 17.6439 28.4426 17.0401C27.1872 15.7847 25.9318 14.5315 24.6764 13.2804C24.6288 13.2439 24.5776 13.2123 24.5235 13.1863L28.3141 9.07324C28.6464 9.4388 28.9787 9.78884 29.2944 10.1433C30.0816 11.0125 30.8685 11.8832 31.6549 12.7554C32.0681 13.2129 32.4891 13.6637 32.8967 14.1245C33.3808 14.6718 33.8216 15.2522 34.1152 15.9246C34.292 16.318 34.4419 16.7228 34.5638 17.1365C34.6685 17.5299 34.7466 17.93 34.7975 18.334C34.8629 18.7903 34.9083 19.2512 34.9437 19.7109C34.9509 19.9053 34.9454 20.0999 34.9271 20.2935C34.8933 20.8999 34.7893 21.5002 34.617 22.0826C33.5536 25.7891 30.2271 28.3967 26.4941 28.7434L26.4111 28.7523C26.0865 28.7844 25.7608 28.8021 25.4352 28.8021H5.90625C5.97271 28.7301 6.03807 28.6581 6.10453 28.5872C7.83256 26.7262 9.41769 25.0081 11.1446 23.1482C11.169 23.1227 11.3185 22.9676 11.3462 22.9333L11.5755 22.9311Z" fill="#D93855"/>
<path d="M28.0905 9.07317C23.0917 9.07317 18.0923 9.07317 13.0921 9.07317C12.3862 9.06192 11.6984 9.29693 11.1469 9.73782C10.1744 10.5132 9.74236 11.5235 10.0049 12.7476C10.1862 13.5891 10.6097 14.3593 11.2234 14.963C12.4788 16.2185 13.7342 17.4713 14.9896 18.7216C15.0368 18.7589 15.0881 18.7909 15.1424 18.8169L11.3474 22.931C11.0151 22.5655 10.6828 22.2154 10.3671 21.8609C9.5799 20.9917 8.79305 20.1207 8.00658 19.2478C7.5934 18.7914 7.17248 18.3405 6.76484 17.8786C6.28077 17.3314 5.8399 16.7509 5.54636 16.0785C5.3694 15.6856 5.21951 15.2811 5.09774 14.8678C4.99241 14.4743 4.91359 14.0743 4.86179 13.6703C4.79644 13.2128 4.75213 12.7531 4.71558 12.2923C4.70898 12.0979 4.71453 11.9033 4.73219 11.7096C4.76607 11.1036 4.87015 10.5037 5.04235 9.9217C6.10575 6.2141 9.4322 3.6098 13.1652 3.25975L13.2483 3.252C13.5725 3.21879 13.8982 3.20215 14.2242 3.20215L33.7553 3.20215C33.6888 3.27415 33.6235 3.34615 33.557 3.41705C31.829 5.27695 30.2438 6.99505 28.5169 8.85606C28.4925 8.88154 28.343 9.03662 28.3153 9.07096L28.0905 9.07317Z" fill="#D93855"/>
</svg>
